<svg width="58" height="49" viewBox="0 0 58 49" fill="none" xmlns="http://www.w3.org/2000/svg">
<path d="M9.08347 44.2062C8.12918 44.2062 7.29418 43.9048 6.57847 43.3019C5.86276 42.6991 5.5049 41.9959 5.5049 41.1921V17.0797C5.5049 16.2759 5.86276 15.5727 6.57847 14.9699C7.29418 14.367 8.12918 14.0656 9.08347 14.0656H23.2188V7.03285C23.2188 6.2291 23.5767 5.52582 24.2924 4.92301C25.0081 4.3202 25.8431 4.0188 26.7974 4.0188H31.9863C32.9406 4.0188 33.7756 4.3202 34.4913 4.92301C35.207 5.52582 35.5649 6.2291 35.5649 7.03285V14.0656H49.6406C50.5949 14.0656 51.4299 14.367 52.1456 14.9699C52.8613 15.5727 53.2192 16.2759 53.2192 17.0797V41.1921C53.2192 41.9959 52.8613 42.6991 52.1456 43.3019C51.4299 43.9048 50.5949 44.2062 49.6406 44.2062H9.08347ZM9.08347 41.1921H49.6406V17.0797H35.5649C35.5649 18.0174 35.1971 18.7542 34.4615 19.29C33.7259 19.8258 32.8014 20.0937 31.6881 20.0937H27.036C25.9624 20.0937 25.0578 19.8258 24.3222 19.29C23.5866 18.7542 23.2188 18.0174 23.2188 17.0797H9.08347V41.1921ZM14.5706 35.817H28.8252V35.1138C28.8252 34.511 28.6463 33.9751 28.2885 33.5063C27.9306 33.0374 27.4733 32.7193 26.9167 32.5518C25.6443 32.1834 24.6503 31.9406 23.9345 31.8234C23.2188 31.7062 22.523 31.6476 21.847 31.6476C21.0916 31.6476 20.2864 31.723 19.4315 31.8737C18.5766 32.0244 17.6124 32.2504 16.5388 32.5518C15.9424 32.7193 15.4653 33.0374 15.1074 33.5063C14.7495 33.9751 14.5706 34.511 14.5706 35.1138V35.817ZM34.6106 32.4514H44.7499V29.9396H34.6106V32.4514ZM21.847 29.9396C22.7616 29.9396 23.527 29.6717 24.1433 29.1359C24.7596 28.6001 25.0677 27.9638 25.0677 27.227C25.0677 26.4567 24.7596 25.8121 24.1433 25.293C23.527 24.7739 22.7616 24.5144 21.847 24.5144C20.9723 24.5144 20.2168 24.7739 19.5806 25.293C18.9444 25.8121 18.6263 26.4567 18.6263 27.227C18.6263 27.9638 18.9444 28.6001 19.5806 29.1359C20.2168 29.6717 20.9723 29.9396 21.847 29.9396ZM34.6106 26.7749H44.7499V24.2632H34.6106V26.7749ZM26.7974 17.0797H31.9863V7.03285H26.7974V17.0797Z" fill="#FFA500"/>
</svg>
