<svg width="39" height="38" viewBox="0 0 39 38" fill="none" xmlns="http://www.w3.org/2000/svg">
<path d="M17.3451 26.204L28.5209 15.0019L26.7044 13.2207L17.3451 22.6019L12.6062 17.8519L10.8291 19.6332L17.3451 26.204ZM19.675 34.8332C17.5162 34.8332 15.4758 34.4175 13.5539 33.5863C11.6321 32.755 9.95369 31.6203 8.51886 30.1821C7.08403 28.7439 5.95196 27.0616 5.12265 25.1353C4.29335 23.2089 3.87869 21.1637 3.87869 18.9998C3.87869 16.8096 4.29335 14.7512 5.12265 12.8248C5.95196 10.8984 7.08403 9.22275 8.51886 7.79775C9.95369 6.37275 11.6321 5.24463 13.5539 4.41338C15.4758 3.58213 17.5162 3.1665 19.675 3.1665C21.8602 3.1665 23.9137 3.58213 25.8356 4.41338C27.7575 5.24463 29.4292 6.37275 30.8509 7.79775C32.2726 9.22275 33.3981 10.8984 34.2274 12.8248C35.0567 14.7512 35.4713 16.8096 35.4713 18.9998C35.4713 21.1637 35.0567 23.2089 34.2274 25.1353C33.3981 27.0616 32.2726 28.7439 30.8509 30.1821C29.4292 31.6203 27.7575 32.755 25.8356 33.5863C23.9137 34.4175 21.8602 34.8332 19.675 34.8332ZM19.675 32.4582C23.4135 32.4582 26.5859 31.1453 29.1923 28.5196C31.7987 25.8939 33.1019 22.7207 33.1019 18.9998C33.1019 15.2526 31.7987 12.0728 29.1923 9.46025C26.5859 6.84775 23.4135 5.5415 19.675 5.5415C15.9629 5.5415 12.797 6.84775 10.1775 9.46025C7.55792 12.0728 6.24814 15.2526 6.24814 18.9998C6.24814 22.7207 7.55792 25.8939 10.1775 28.5196C12.797 31.1453 15.9629 32.4582 19.675 32.4582Z" fill="#FFA500"/>
</svg>
