<svg width="29" height="28" viewBox="0 0 29 28" fill="none" xmlns="http://www.w3.org/2000/svg">
<path d="M4.86688 26.8333V25.0833H24.4211V26.8333H4.86688ZM4.86688 2.91666V1.16666H24.4211V2.91666H4.86688ZM14.644 15.05C15.6139 15.05 16.4287 14.7194 17.0882 14.0583C17.7478 13.3972 18.0776 12.5805 18.0776 11.6083C18.0776 10.6361 17.7478 9.81943 17.0882 9.15832C16.4287 8.49721 15.6139 8.16666 14.644 8.16666C13.674 8.16666 12.8593 8.49721 12.1997 9.15832C11.5401 9.81943 11.2103 10.6361 11.2103 11.6083C11.2103 12.5805 11.5401 13.3972 12.1997 14.0583C12.8593 14.7194 13.674 15.05 14.644 15.05ZM4.5177 23.3333C4.05212 23.3333 3.64474 23.1583 3.29556 22.8083C2.94638 22.4583 2.77179 22.05 2.77179 21.5833V6.41666C2.77179 5.9111 2.94638 5.49305 3.29556 5.16249C3.64474 4.83193 4.05212 4.66666 4.5177 4.66666H24.7702C25.2358 4.66666 25.6432 4.84166 25.9924 5.19166C26.3416 5.54166 26.5161 5.94999 26.5161 6.41666V21.5833C26.5161 22.05 26.3416 22.4583 25.9924 22.8083C25.6432 23.1583 25.2358 23.3333 24.7702 23.3333H4.5177ZM7.07836 21.5833C8.06771 20.3583 9.24135 19.4396 10.5993 18.8271C11.9572 18.2146 13.3054 17.9083 14.644 17.9083C15.9631 17.9083 17.3162 18.2146 18.7032 18.8271C20.0902 19.4396 21.259 20.3583 22.2096 21.5833H24.7702V6.41666H4.5177V21.5833H7.07836ZM9.81362 21.5833H19.5325C18.9311 21 18.2279 20.5333 17.4229 20.1833C16.6178 19.8333 15.6915 19.6583 14.644 19.6583C13.5964 19.6583 12.6798 19.8333 11.8942 20.1833C11.1085 20.5333 10.415 21 9.81362 21.5833ZM14.644 13.3C14.1784 13.3 13.7856 13.1347 13.4655 12.8042C13.1454 12.4736 12.9854 12.075 12.9854 11.6083C12.9854 11.1417 13.1454 10.743 13.4655 10.4125C13.7856 10.0819 14.1784 9.91666 14.644 9.91666C15.1095 9.91666 15.5024 10.0819 15.8225 10.4125C16.1425 10.743 16.3026 11.1417 16.3026 11.6083C16.3026 12.075 16.1425 12.4736 15.8225 12.8042C15.5024 13.1347 15.1095 13.3 14.644 13.3Z" fill="#FFA500"/>
</svg>
