<svg width="160" height="160" viewBox="0 0 160 160" fill="none" xmlns="http://www.w3.org/2000/svg">
<g clip-path="url(#clip0_34_277)">
<path fill-rule="evenodd" clip-rule="evenodd" d="M80 156C121.974 156 156 121.974 156 80C156 38.0264 121.974 4 80 4C38.0264 4 4 38.0264 4 80C4 121.974 38.0264 156 80 156ZM80 160C124.183 160 160 124.183 160 80C160 35.8172 124.183 0 80 0C35.8172 0 0 35.8172 0 80C0 124.183 35.8172 160 80 160ZM73.4004 80.9427L48.8873 56.4297L56.4299 48.8872L80.9428 73.4003L104.513 49.8301L112.055 57.3725L88.4853 80.9427L111.113 103.57L103.57 111.113L80.9428 88.4852L57.3725 112.055L49.8301 104.513L73.4004 80.9427Z" fill="#FD0707"/>
</g>
<defs>
<clipPath id="clip0_34_277">
<rect width="160" height="160" fill="white"/>
</clipPath>
</defs>
</svg>
