<svg width="59" height="54" viewBox="0 0 59 54" fill="none" xmlns="http://www.w3.org/2000/svg">
<path d="M3.93801 39.8486L0.749832 37.5752L12.982 18.6297L20.7898 27.4709L31.1351 11.1778L38.2272 21.4084C37.5332 21.4926 36.8609 21.6294 36.2102 21.8189C35.5596 22.0083 34.9089 22.2293 34.2583 22.482L31.3303 18.1245L21.3754 33.8492L13.5026 24.9449L3.93801 39.8486ZM55.2092 53.0473L46.4905 44.585C45.5796 45.2165 44.5927 45.7007 43.53 46.0375C42.4673 46.3743 41.372 46.5427 40.2442 46.5427C37.1645 46.5427 34.5511 45.5007 32.4039 43.4167C30.2568 41.3327 29.1832 38.7961 29.1832 35.8069C29.1832 32.8178 30.2568 30.2812 32.4039 28.1972C34.5511 26.1132 37.1645 25.0712 40.2442 25.0712C43.324 25.0712 45.9374 26.1132 48.0846 28.1972C50.2317 30.2812 51.3053 32.8178 51.3053 35.8069C51.3053 36.9016 51.1209 37.9646 50.7522 38.9961C50.3835 40.0276 49.8955 41.0064 49.2883 41.9326L58.007 50.3318L55.2092 53.0473ZM40.2442 42.7536C42.2396 42.7536 43.9312 42.08 45.3193 40.7328C46.7073 39.3855 47.4014 37.7436 47.4014 35.8069C47.4014 33.8703 46.7073 32.2283 45.3193 30.8811C43.9312 29.5339 42.2396 28.8603 40.2442 28.8603C38.2489 28.8603 36.5572 29.5339 35.1692 30.8811C33.7811 32.2283 33.0871 33.8703 33.0871 35.8069C33.0871 37.7436 33.7811 39.3855 35.1692 40.7328C36.5572 42.08 38.2489 42.7536 40.2442 42.7536ZM45.059 22.0399C44.4084 21.7873 43.7361 21.6189 43.042 21.5347C42.348 21.4505 41.6323 21.3663 40.8949 21.2821L54.8188 0L58.007 2.27346L45.059 22.0399Z" fill="#FFA500"/>
</svg>
