<svg width="29" height="28" viewBox="0 0 29 28" fill="none" xmlns="http://www.w3.org/2000/svg">
<path d="M21.3324 16.3333V12.5417H17.5496V10.7917H21.3324V6.99999H23.0783V10.7917H26.8611V12.5417H23.0783V16.3333H21.3324ZM10.566 13.9708C9.28563 13.9708 8.23809 13.5625 7.42333 12.7458C6.60858 11.9292 6.2012 10.8792 6.2012 9.59583C6.2012 8.31249 6.60858 7.26249 7.42333 6.44583C8.23809 5.62916 9.28563 5.22083 10.566 5.22083C11.8463 5.22083 12.8938 5.62916 13.7086 6.44583C14.5234 7.26249 14.9307 8.31249 14.9307 9.59583C14.9307 10.8792 14.5234 11.9292 13.7086 12.7458C12.8938 13.5625 11.8463 13.9708 10.566 13.9708ZM1.25446 23.3333V20.5917C1.25446 19.9111 1.4242 19.2937 1.76368 18.7396C2.10316 18.1854 2.59299 17.7722 3.23315 17.5C4.68808 16.8583 5.98296 16.4062 7.1178 16.1437C8.25264 15.8812 9.40203 15.75 10.566 15.75C11.7299 15.75 12.8744 15.8812 13.9996 16.1437C15.1247 16.4062 16.4148 16.8583 17.8697 17.5C18.5099 17.7917 19.0045 18.2097 19.3537 18.7542C19.7029 19.2986 19.8775 19.9111 19.8775 20.5917V23.3333H1.25446ZM3.00036 21.5833H18.1316V20.5917C18.1316 20.2805 18.0443 19.984 17.8697 19.7021C17.6951 19.4201 17.4623 19.2111 17.1713 19.075C15.794 18.4333 14.6301 18.0104 13.6795 17.8062C12.729 17.6021 11.6911 17.5 10.566 17.5C9.44083 17.5 8.39813 17.6021 7.43788 17.8062C6.47763 18.0104 5.30884 18.4333 3.93152 19.075C3.64053 19.2111 3.41259 19.4201 3.2477 19.7021C3.08281 19.984 3.00036 20.2805 3.00036 20.5917V21.5833ZM10.566 12.2208C11.3225 12.2208 11.9481 11.9729 12.4428 11.4771C12.9375 10.9812 13.1848 10.3542 13.1848 9.59583C13.1848 8.83749 12.9375 8.21041 12.4428 7.71458C11.9481 7.21874 11.3225 6.97083 10.566 6.97083C9.80941 6.97083 9.18379 7.21874 8.68912 7.71458C8.19444 8.21041 7.9471 8.83749 7.9471 9.59583C7.9471 10.3542 8.19444 10.9812 8.68912 11.4771C9.18379 11.9729 9.80941 12.2208 10.566 12.2208Z" fill="#FFA500"/>
</svg>
