<svg width="58" height="54" viewBox="0 0 58 54" fill="none" xmlns="http://www.w3.org/2000/svg">
<path d="M44.2727 30.9443V23.7608H36.5192V20.4453H44.2727V13.2618H47.8513V20.4453H55.6049V23.7608H47.8513V30.9443H44.2727ZM22.2049 26.4684C19.5806 26.4684 17.4335 25.6948 15.7635 24.1476C14.0935 22.6004 13.2585 20.6111 13.2585 18.1798C13.2585 15.7484 14.0935 13.7591 15.7635 12.2119C17.4335 10.6647 19.5806 9.89111 22.2049 9.89111C24.8292 9.89111 26.9763 10.6647 28.6463 12.2119C30.3163 13.7591 31.1513 15.7484 31.1513 18.1798C31.1513 20.6111 30.3163 22.6004 28.6463 24.1476C26.9763 25.6948 24.8292 26.4684 22.2049 26.4684ZM3.11919 44.2061V39.0119C3.11919 37.7225 3.4671 36.5529 4.16294 35.503C4.85877 34.4531 5.86276 33.6703 7.1749 33.1546C10.157 31.9389 12.8111 31.0824 15.1372 30.5851C17.4633 30.0878 19.8192 29.8391 22.2049 29.8391C24.5906 29.8391 26.9366 30.0878 29.2427 30.5851C31.5489 31.0824 34.1931 31.9389 37.1752 33.1546C38.4874 33.7071 39.5013 34.4992 40.217 35.5307C40.9327 36.5621 41.2906 37.7225 41.2906 39.0119V44.2061H3.11919ZM6.69776 40.8906H37.712V39.0119C37.712 38.4225 37.5331 37.8607 37.1752 37.3265C36.8174 36.7924 36.3402 36.3964 35.7438 36.1385C32.9207 34.9228 30.535 34.1216 28.5867 33.7348C26.6383 33.348 24.5111 33.1546 22.2049 33.1546C19.8987 33.1546 17.7615 33.348 15.7933 33.7348C13.8251 34.1216 11.4294 34.9228 8.60633 36.1385C8.0099 36.3964 7.5427 36.7924 7.20472 37.3265C6.86674 37.8607 6.69776 38.4225 6.69776 39.0119V40.8906ZM22.2049 23.1529C23.7556 23.1529 25.0379 22.6833 26.0519 21.7439C27.0658 20.8045 27.5727 19.6165 27.5727 18.1798C27.5727 16.7431 27.0658 15.555 26.0519 14.6156C25.0379 13.6763 23.7556 13.2066 22.2049 13.2066C20.6542 13.2066 19.3719 13.6763 18.3579 14.6156C17.344 15.555 16.837 16.7431 16.837 18.1798C16.837 19.6165 17.344 20.8045 18.3579 21.7439C19.3719 22.6833 20.6542 23.1529 22.2049 23.1529Z" fill="#FFA500"/>
</svg>
