<svg width="29" height="28" viewBox="0 0 29 28" fill="none" xmlns="http://www.w3.org/2000/svg">
<g clip-path="url(#clip0_29_184)">
<path d="M26.5298 11.4625L25.8605 10.0042L24.4056 9.33333L25.8605 8.6625L26.5298 7.20417L27.1991 8.6625L28.654 9.33333L27.1991 10.0042L26.5298 11.4625ZM22.8343 6.35833L21.8158 4.2L19.6625 3.17917L21.8158 2.15833L22.8343 0L23.8527 2.15833L26.006 3.17917L23.8527 4.2L22.8343 6.35833ZM11.1949 25.6667C10.5353 25.6667 9.9776 25.4382 9.52173 24.9813C9.06585 24.5243 8.83791 23.9653 8.83791 23.3042H13.5519C13.5519 23.9653 13.3239 24.5243 12.8681 24.9813C12.4122 25.4382 11.8545 25.6667 11.1949 25.6667ZM6.48094 21.4958V19.7458H15.9088V21.4958H6.48094ZM6.62643 17.9667C5.3461 17.1306 4.3325 16.0854 3.58564 14.8313C2.83878 13.5771 2.46535 12.1625 2.46535 10.5875C2.46535 8.21528 3.3286 6.16389 5.05511 4.43333C6.78162 2.70278 8.82821 1.8375 11.1949 1.8375C13.5616 1.8375 15.6082 2.70278 17.3347 4.43333C19.0612 6.16389 19.9244 8.21528 19.9244 10.5875C19.9244 12.1625 19.5559 13.5771 18.8187 14.8313C18.0815 16.0854 17.0631 17.1306 15.7634 17.9667H6.62643ZM7.2666 16.2167H15.1523C16.0834 15.5944 16.8206 14.7875 17.3638 13.7958C17.9069 12.8042 18.1785 11.7347 18.1785 10.5875C18.1785 8.6625 17.4947 7.01458 16.1271 5.64375C14.7595 4.27292 13.1154 3.5875 11.1949 3.5875C9.27439 3.5875 7.63033 4.27292 6.2627 5.64375C4.89507 7.01458 4.21126 8.6625 4.21126 10.5875C4.21126 11.7347 4.48284 12.8042 5.02601 13.7958C5.56919 14.7875 6.31605 15.5944 7.2666 16.2167Z" fill="#FFA500"/>
</g>
<defs>
<clipPath id="clip0_29_184">
<rect width="27.9345" height="28" fill="white" transform="translate(0.719437)"/>
</clipPath>
</defs>
</svg>
