<?xml version="1.0" encoding="UTF-8" standalone="no"?>
<!-- Generator: Adobe Illustrator 23.1.0, SVG Export Plug-In . SVG Version: 6.00 Build 0)  -->

<svg
   version="1.1"
   id="Слой_1"
   x="0px"
   y="0px"
   viewBox="0 0 166148.22 158108.82"
   xml:space="preserve"
   width="166148.22"
   height="158108.83"
   xmlns:xlink="http://www.w3.org/1999/xlink"
   xmlns="http://www.w3.org/2000/svg"
   xmlns:svg="http://www.w3.org/2000/svg"><defs
   id="defs1306" />
<style
   type="text/css"
   id="style655">
	.st0{display:none;}
	.st1{display:inline;}
	.st2{fill:#0099F2;}
	.st3{clip-path:url(#SVGID_2_);fill:#4D87B3;}
	.st4{clip-path:url(#SVGID_4_);}
	.st5{clip-path:url(#SVGID_6_);fill:#FFFFFF;}
	.st6{clip-path:url(#SVGID_8_);fill:none;stroke:#445371;stroke-width:1.7544;stroke-miterlimit:10;}
	.st7{clip-path:url(#SVGID_10_);fill:#455273;}
	.st8{clip-path:url(#SVGID_12_);fill:#455273;}
	.st9{clip-path:url(#SVGID_14_);fill:#0D0E0F;}
	.st10{clip-path:url(#SVGID_16_);fill:#0D0E0F;}
	.st11{clip-path:url(#SVGID_18_);}
	.st12{fill:#0D0E0F;}
	.st13{font-family:'ArialMT';}
	.st14{font-size:20.6527px;}
	.st15{clip-path:url(#SVGID_20_);}
	.st16{fill:#404E75;}
	.st17{fill:#FFFFFF;stroke:#0099F2;stroke-miterlimit:10;}
	.st18{fill:#004481;}
	.st19{fill:none;}
	.st20{display:inline;fill:none;}
	.st21{fill:#00447F;}
	.st22{font-family:'Inter-SemiBold';}
	.st23{font-size:60px;}
	.st24{opacity:0.53;}
	.st25{clip-path:url(#SVGID_22_);fill:#0099F2;}
	.st26{clip-path:url(#SVGID_24_);}
	.st27{clip-path:url(#SVGID_26_);fill:#FFFFFF;}
	.st28{clip-path:url(#SVGID_28_);fill:none;stroke:#0099F2;stroke-miterlimit:10;}
	.st29{clip-path:url(#SVGID_30_);fill:#004481;}
	.st30{clip-path:url(#SVGID_32_);fill:#004381;}
	.st31{clip-path:url(#SVGID_34_);fill:#00457C;}
	.st32{clip-path:url(#SVGID_36_);fill:#004383;}
	.st33{clip-path:url(#SVGID_38_);fill:#00447F;}
	.st34{clip-path:url(#SVGID_40_);fill:#003F7D;}
	.st35{clip-path:url(#SVGID_42_);fill:#00447E;}
	.st36{clip-path:url(#SVGID_44_);fill:#004481;}
	.st37{clip-path:url(#SVGID_46_);fill:#0099F2;}
	.st38{clip-path:url(#SVGID_48_);fill:#0099F2;}
	.st39{display:inline;fill:#00447F;}
	.st40{font-size:61.5744px;}
	.st41{display:inline;fill:#0099F2;}
	.st42{clip-path:url(#SVGID_50_);}
	.st43{enable-background:new    ;}
	.st44{clip-path:url(#SVGID_52_);}
	.st45{clip-path:url(#SVGID_54_);}
	.st46{clip-path:url(#SVGID_56_);fill:#0099F2;}
	.st47{clip-path:url(#SVGID_58_);fill:#0099F2;}
	.st48{clip-path:url(#SVGID_60_);}
	.st49{clip-path:url(#SVGID_62_);fill:#FFFFFF;}
	.st50{clip-path:url(#SVGID_64_);fill:none;stroke:#0099F2;stroke-miterlimit:10;}
	.st51{clip-path:url(#SVGID_66_);fill:#004481;}
	.st52{clip-path:url(#SVGID_68_);fill:#004481;}
</style>
<g
   class="st0"
   id="g1161"
   transform="translate(-100129.46,-184544.49)">
	<g
   class="st1"
   id="g980">
		<g
   id="g945">
			<g
   id="g659">
				<polygon
   class="st2"
   points="304,219.5 251.6,267 302.2,316.1 352.4,269.5 "
   id="polygon657" />
			</g>
			<g
   class="st0"
   id="g935">
				<g
   class="st1"
   id="g933">
					<g
   id="g931">
						<g
   id="g685">
							<g
   id="g683">
								<g
   id="g681">
									<g
   id="g679">
										<g
   id="g677">
											<g
   id="g675">
												<g
   id="g673">
													<g
   id="g671">
														<g
   id="g669">
															<defs
   id="defs662"><rect
     id="SVGID_1_"
     x="-232.60001"
     y="15"
     width="1064.6"
     height="1448.9" /></defs>
															<clipPath
   id="SVGID_2_">
																<use
   xlink:href="#SVGID_1_"
   style="overflow:visible"
   id="use664" />
															</clipPath>
															<polygon
   class="st3"
   points="249.4,269.4 301.3,220.7 350.6,269.8 301.3,317.7 "
   clip-path="url(#SVGID_2_)"
   id="polygon667" />
														</g>
													</g>
												</g>
											</g>
										</g>
									</g>
								</g>
							</g>
						</g>
						<g
   id="g867">
							<g
   id="g865">
								<g
   id="g863">
									<g
   id="g861">
										<g
   id="g859">
											<g
   id="g857">
												<g
   id="g855">
													<g
   id="g853">
														<g
   id="g851">
															<defs
   id="defs688"><rect
     id="SVGID_3_"
     x="-232.60001"
     y="15"
     width="1064.6"
     height="1448.9" /></defs>
															<clipPath
   id="SVGID_4_">
																<use
   xlink:href="#SVGID_3_"
   style="overflow:visible"
   id="use690" />
															</clipPath>
															<g
   class="st4"
   clip-path="url(#SVGID_4_)"
   id="g849">
																<g
   id="g717">
																	<g
   id="g715">
																		<g
   id="g713">
																			<g
   id="g711">
																				<g
   id="g709">
																					<g
   id="g707">
																						<g
   id="g705">
																							<g
   id="g703">
																								<g
   id="g701">
																									<defs
   id="defs694"><rect
     id="SVGID_5_"
     x="-232.60001"
     y="15"
     width="1064.6"
     height="1448.9" /></defs>
																									<clipPath
   id="SVGID_6_">
																										<use
   xlink:href="#SVGID_5_"
   style="overflow:visible"
   id="use696" />
																									</clipPath>
																									<path
   class="st5"
   d="m 317.8,237.6 38.2,-1.5 -5.9,33.5 -6.7,-7 c -29,18.3 -58.4,22.6 -91.8,10.8 27.9,1.7 56.5,-7.4 74.1,-28.9 z"
   clip-path="url(#SVGID_6_)"
   id="path699" />
																								</g>
																							</g>
																						</g>
																					</g>
																				</g>
																			</g>
																		</g>
																	</g>
																</g>
																<g
   id="g743">
																	<g
   id="g741">
																		<g
   id="g739">
																			<g
   id="g737">
																				<g
   id="g735">
																					<g
   id="g733">
																						<g
   id="g731">
																							<g
   id="g729">
																								<g
   id="g727">
																									<defs
   id="defs720"><rect
     id="SVGID_7_"
     x="-232.60001"
     y="15"
     width="1064.6"
     height="1448.9" /></defs>
																									<clipPath
   id="SVGID_8_">
																										<use
   xlink:href="#SVGID_7_"
   style="overflow:visible"
   id="use722" />
																									</clipPath>
																									<path
   class="st6"
   d="m 317.8,237.6 38.2,-1.5 -5.9,33.5 -6.7,-7 c -29,18.3 -58.4,22.6 -91.8,10.8 27.9,1.7 56.5,-7.4 74.1,-28.9 z"
   clip-path="url(#SVGID_8_)"
   id="path725" />
																								</g>
																							</g>
																						</g>
																					</g>
																				</g>
																			</g>
																		</g>
																	</g>
																</g>
																<g
   id="g769">
																	<g
   id="g767">
																		<g
   id="g765">
																			<g
   id="g763">
																				<g
   id="g761">
																					<g
   id="g759">
																						<g
   id="g757">
																							<g
   id="g755">
																								<g
   id="g753">
																									<defs
   id="defs746"><rect
     id="SVGID_9_"
     x="-232.60001"
     y="15"
     width="1064.6"
     height="1448.9" /></defs>
																									<clipPath
   id="SVGID_10_">
																										<use
   xlink:href="#SVGID_9_"
   style="overflow:visible"
   id="use748" />
																									</clipPath>
																									<path
   class="st7"
   d="m 270.3,296.2 25.6,24.3 2.4,89.9 c -4.9,-29.6 -4.1,-57 -39.1,-97.5 z"
   clip-path="url(#SVGID_10_)"
   id="path751" />
																								</g>
																							</g>
																						</g>
																					</g>
																				</g>
																			</g>
																		</g>
																	</g>
																</g>
																<g
   id="g795">
																	<g
   id="g793">
																		<g
   id="g791">
																			<g
   id="g789">
																				<g
   id="g787">
																					<g
   id="g785">
																						<g
   id="g783">
																							<g
   id="g781">
																								<g
   id="g779">
																									<defs
   id="defs772"><rect
     id="SVGID_11_"
     x="-232.60001"
     y="15"
     width="1064.6"
     height="1448.9" /></defs>
																									<clipPath
   id="SVGID_12_">
																										<use
   xlink:href="#SVGID_11_"
   style="overflow:visible"
   id="use774" />
																									</clipPath>
																									<path
   class="st8"
   d="m 303.8,321.5 25.6,-23 12.5,15.3 c -24.6,29.3 -34.3,60.3 -39.1,97.2 z"
   clip-path="url(#SVGID_12_)"
   id="path777" />
																								</g>
																							</g>
																						</g>
																					</g>
																				</g>
																			</g>
																		</g>
																	</g>
																</g>
																<g
   id="g821">
																	<g
   id="g819">
																		<g
   id="g817">
																			<g
   id="g815">
																				<g
   id="g813">
																					<g
   id="g811">
																						<g
   id="g809">
																							<g
   id="g807">
																								<g
   id="g805">
																									<defs
   id="defs798"><rect
     id="SVGID_13_"
     x="-232.60001"
     y="15"
     width="1064.6"
     height="1448.9" /></defs>
																									<clipPath
   id="SVGID_14_">
																										<use
   xlink:href="#SVGID_13_"
   style="overflow:visible"
   id="use800" />
																									</clipPath>
																									<polygon
   class="st9"
   points="-18,361 -34,361 -34,412.7 -43,412.7 -43,361 -59,361.1 -59,352 -18,352 "
   clip-path="url(#SVGID_14_)"
   id="polygon803" />
																								</g>
																							</g>
																						</g>
																					</g>
																				</g>
																			</g>
																		</g>
																	</g>
																</g>
																<g
   id="g847">
																	<g
   id="g845">
																		<g
   id="g843">
																			<g
   id="g841">
																				<g
   id="g839">
																					<g
   id="g837">
																						<g
   id="g835">
																							<g
   id="g833">
																								<g
   id="g831">
																									<defs
   id="defs824"><rect
     id="SVGID_15_"
     x="-232.60001"
     y="15"
     width="1064.6"
     height="1448.9" /></defs>
																									<clipPath
   id="SVGID_16_">
																										<use
   xlink:href="#SVGID_15_"
   style="overflow:visible"
   id="use826" />
																									</clipPath>
																									<path
   class="st10"
   d="M 18.3,351.9 H 29 l 16.5,60.8 H 35.9 L 28.2,380.4 C 26.7,374 25,367.1 23.6,360.4 h -0.3 c -1.4,6.7 -2.9,13.6 -4.5,20 l -7.7,32.3 H 1.9 Z m -6.6,35.8 h 23.8 v 8.5 H 11.7 c 0,0.1 0,-8.5 0,-8.5 z"
   clip-path="url(#SVGID_16_)"
   id="path829" />
																								</g>
																							</g>
																						</g>
																					</g>
																				</g>
																			</g>
																		</g>
																	</g>
																</g>
															</g>
														</g>
													</g>
												</g>
											</g>
										</g>
									</g>
								</g>
							</g>
						</g>
						<g
   id="g895">
							<g
   id="g893">
								<g
   id="g891">
									<g
   id="g889">
										<g
   id="g887">
											<g
   id="g885">
												<g
   id="g883">
													<g
   id="g881">
														<g
   id="g879">
															<defs
   id="defs870"><rect
     id="SVGID_17_"
     x="-232.60001"
     y="15"
     width="1064.6"
     height="1448.9" /></defs>
															<clipPath
   id="SVGID_18_">
																<use
   xlink:href="#SVGID_17_"
   style="overflow:visible"
   id="use872" />
															</clipPath>
															<g
   class="st11"
   clip-path="url(#SVGID_18_)"
   id="g877">
																<text
   transform="matrix(1.0392,0,0,1,68.0679,366.5267)"
   class="st12 st13 st14"
   id="text875"> </text>
															</g>
														</g>
													</g>
												</g>
											</g>
										</g>
									</g>
								</g>
							</g>
						</g>
						<g
   id="g929">
							<g
   id="g927">
								<g
   id="g925">
									<g
   id="g923">
										<g
   id="g921">
											<g
   id="g919">
												<g
   id="g917">
													<g
   id="g915">
														<g
   id="g913">
															<defs
   id="defs898"><rect
     id="SVGID_19_"
     x="-232.60001"
     y="15"
     width="1064.6"
     height="1448.9" /></defs>
															<clipPath
   id="SVGID_20_">
																<use
   xlink:href="#SVGID_19_"
   style="overflow:visible"
   id="use900" />
															</clipPath>
															<g
   class="st15"
   clip-path="url(#SVGID_20_)"
   id="g911">
																<g
   id="g909">
																	<path
   class="st16"
   d="m 332.6,408.6 v -4.3 h 44.1 v 4.3 l -0.7,18 h -5.9 v -16.1 h -30.9 v 16.1 h -5.9 z m 31.6,-48.4 h -13 c -1.5,9.6 -2.1,15.4 -3.6,25 -2.8,16.8 -6,22.5 -10.7,23.4 l -2,-4.2 c 2.1,-0.9 4.2,-5.4 6.7,-20.3 1.8,-11.2 2.9,-18 4.4,-30 h 24.9 v 56.4 h -6.7 z"
   id="path903" />
																	<path
   class="st16"
   d="M 387.9,354.1 H 420 v 6.1 h -25.5 v 17.6 h 21.6 v 6.1 h -21.6 v 20.5 h 26.3 v 6.1 h -33 v -56.4 z"
   id="path905" />
																	<path
   class="st16"
   d="m 432.5,354.1 h 8.1 l 7.3,24 2.5,9.1 h 0.3 l 2.5,-9.1 7.4,-24 h 8.1 v 56.4 h -6.3 v -28.2 c 0,-5.5 0.8,-15.1 1.1,-19.9 h -0.2 l -2.9,11 -7.5,22.2 H 448 l -7.3,-22.2 -3,-11 h -0.2 c 0.5,4.8 1.1,14.4 1.1,19.9 v 28.2 h -6.2 z"
   id="path907" />
																</g>
															</g>
														</g>
													</g>
												</g>
											</g>
										</g>
									</g>
								</g>
							</g>
						</g>
					</g>
				</g>
			</g>
			<g
   id="Слой_4">
				<path
   class="st17"
   d="m 320.3,237.1 7.5,6.9 c -15.2,15.7 -39.4,23.7 -71.7,23.8 35.5,11.5 65.3,4.3 86.6,-8.2 l 6.5,7.1 4.3,-31.8 z"
   id="path937" />
			</g>
			<g
   id="Слой_5">
				<path
   class="st18"
   d="m 304.5,316.8 25.9,-22.7 12.2,15 c -23.1,26.4 -34.2,62.5 -39.1,95.3 z"
   id="path940" />
				<path
   class="st18"
   d="M 300,316.9 274.5,293.7 262,308.5 c 22.7,26.8 33.1,63.1 37.5,95.9 z"
   id="path942" />
			</g>
		</g>
		<g
   id="Слой_3">
		</g>
		<g
   class="st0"
   id="g974">
			<g
   class="st1"
   id="g970">
				<rect
   x="129.5"
   y="203"
   class="st19"
   width="344.10001"
   height="193.60001"
   id="rect948" />
				<line
   class="st19"
   x1="129.5"
   y1="364.29999"
   x2="473.60001"
   y2="364.29999"
   id="line950" />
				<line
   class="st19"
   x1="129.5"
   y1="332"
   x2="473.60001"
   y2="332"
   id="line952" />
				<line
   class="st19"
   x1="129.5"
   y1="299.79999"
   x2="473.60001"
   y2="299.79999"
   id="line954" />
				<line
   class="st19"
   x1="129.5"
   y1="267.5"
   x2="473.60001"
   y2="267.5"
   id="line956" />
				<line
   class="st19"
   x1="129.5"
   y1="235.2"
   x2="473.60001"
   y2="235.2"
   id="line958" />
				<line
   class="st19"
   x1="416.20001"
   y1="203"
   x2="416.20001"
   y2="396.60001"
   id="line960" />
				<line
   class="st19"
   x1="358.89999"
   y1="203"
   x2="358.89999"
   y2="396.60001"
   id="line962" />
				<line
   class="st19"
   x1="301.5"
   y1="203"
   x2="301.5"
   y2="396.60001"
   id="line964" />
				<line
   class="st19"
   x1="244.2"
   y1="203"
   x2="244.2"
   y2="396.60001"
   id="line966" />
				<line
   class="st19"
   x1="186.89999"
   y1="203"
   x2="186.89999"
   y2="396.60001"
   id="line968" />
			</g>
			<line
   class="st20"
   x1="184.3"
   y1="351.70001"
   x2="464.29999"
   y2="350.29999"
   id="line972" />
		</g>
		<polygon
   class="st2"
   points="237.1,493.9 212.3,494 210.4,500.4 239,500.2 "
   id="polygon976" />
		<rect
   x="341.89999"
   y="520.40002"
   class="st2"
   width="26.5"
   height="6.9000001"
   id="rect978" />
	</g>
	<g
   class="st1"
   id="g986">
		<text
   transform="translate(161.2146,475.7253)"
   class="st21 st22 st23"
   id="text982">ТАН</text>
		<text
   transform="translate(326.8513,475.8928)"
   class="st21 st22 st23"
   id="text984">ДЕМ</text>
	</g>
	<g
   id="Слой_4_1_"
   class="st1">
		<g
   class="st24"
   id="g1158">
			<g
   id="g1156">
				<g
   id="g998">
					<g
   id="g996">
						<defs
   id="defs989"><rect
     id="SVGID_21_"
     y="0.60000002"
     width="595.29999"
     height="841.90002"
     x="0" /></defs>
						<clipPath
   id="SVGID_22_">
							<use
   xlink:href="#SVGID_21_"
   style="overflow:visible"
   id="use991" />
						</clipPath>
						<polygon
   class="st25"
   points="304,220.1 251.6,267.6 302.2,316.7 352.4,270.1 "
   clip-path="url(#SVGID_22_)"
   id="polygon994" />
					</g>
				</g>
				<g
   id="g1154">
					<g
   id="g1152">
						<defs
   id="defs1001"><rect
     id="SVGID_23_"
     y="0.60000002"
     width="595.29999"
     height="841.90002"
     x="0" /></defs>
						<clipPath
   id="SVGID_24_">
							<use
   xlink:href="#SVGID_23_"
   style="overflow:visible"
   id="use1003" />
						</clipPath>
						<g
   class="st26"
   clip-path="url(#SVGID_24_)"
   id="g1150">
							<g
   id="g1016">
								<g
   id="g1014">
									<defs
   id="defs1007"><rect
     id="SVGID_25_"
     y="0.60000002"
     width="595.29999"
     height="841.90002"
     x="0" /></defs>
									<clipPath
   id="SVGID_26_">
										<use
   xlink:href="#SVGID_25_"
   style="overflow:visible"
   id="use1009" />
									</clipPath>
									<path
   class="st27"
   d="m 320.3,237.7 7.5,6.9 c -15.2,15.7 -39.4,23.7 -71.7,23.8 35.5,11.5 65.3,4.3 86.6,-8.2 l 6.5,7.1 4.3,-31.8 z"
   clip-path="url(#SVGID_26_)"
   id="path1012" />
								</g>
							</g>
							<g
   id="g1028">
								<g
   id="g1026">
									<defs
   id="defs1019"><rect
     id="SVGID_27_"
     y="0.60000002"
     width="595.29999"
     height="841.90002"
     x="0" /></defs>
									<clipPath
   id="SVGID_28_">
										<use
   xlink:href="#SVGID_27_"
   style="overflow:visible"
   id="use1021" />
									</clipPath>
									<path
   class="st28"
   d="m 320.3,237.7 7.5,6.9 c -15.2,15.7 -39.4,23.7 -71.7,23.8 35.5,11.5 65.3,4.3 86.6,-8.2 l 6.5,7.1 4.3,-31.8 z"
   clip-path="url(#SVGID_28_)"
   id="path1024" />
								</g>
							</g>
							<g
   id="g1040">
								<g
   id="g1038">
									<defs
   id="defs1031"><rect
     id="SVGID_29_"
     y="0.60000002"
     width="595.29999"
     height="841.90002"
     x="0" /></defs>
									<clipPath
   id="SVGID_30_">
										<use
   xlink:href="#SVGID_29_"
   style="overflow:visible"
   id="use1033" />
									</clipPath>
									<path
   class="st29"
   d="m 304.5,317.4 25.9,-22.7 12.2,15 c -23.1,26.4 -34.2,62.5 -39.1,95.3 z"
   clip-path="url(#SVGID_30_)"
   id="path1036" />
								</g>
							</g>
							<g
   id="g1052">
								<g
   id="g1050">
									<defs
   id="defs1043"><rect
     id="SVGID_31_"
     y="0.60000002"
     width="595.29999"
     height="841.90002"
     x="0" /></defs>
									<clipPath
   id="SVGID_32_">
										<use
   xlink:href="#SVGID_31_"
   style="overflow:visible"
   id="use1045" />
									</clipPath>
									<path
   class="st30"
   d="m 325.3,395.1 v -5 H 361 v 5 l -0.7,15.1 h -6.5 V 397 h -21.4 v 13.2 h -6.5 z m 23.6,-37.2 h -7.8 c -1,6.7 -1.3,10.2 -2.4,17.1 -2.1,13.8 -5.2,19.6 -10.1,20 l -1.5,-5 c 1.6,-0.7 3.2,-4.6 5,-16.2 1.3,-8.6 2.1,-13.6 3.2,-22.8 h 20.9 v 45.9 h -7.4 z"
   clip-path="url(#SVGID_32_)"
   id="path1048" />
								</g>
							</g>
							<g
   id="g1064">
								<g
   id="g1062">
									<defs
   id="defs1055"><rect
     id="SVGID_33_"
     y="0.60000002"
     width="595.29999"
     height="841.90002"
     x="0" /></defs>
									<clipPath
   id="SVGID_34_">
										<use
   xlink:href="#SVGID_33_"
   style="overflow:visible"
   id="use1057" />
									</clipPath>
									<polygon
   class="st31"
   points="376.2,369.6 392.4,369.6 392.4,376.5 376.2,376.5 376.2,390.1 396,390.1 396,397 368.9,397 368.9,351 395.4,351 395.4,357.9 376.2,357.9 "
   clip-path="url(#SVGID_34_)"
   id="polygon1060" />
								</g>
							</g>
							<g
   id="g1076">
								<g
   id="g1074">
									<defs
   id="defs1067"><rect
     id="SVGID_35_"
     y="0.60000002"
     width="595.29999"
     height="841.90002"
     x="0" /></defs>
									<clipPath
   id="SVGID_36_">
										<use
   xlink:href="#SVGID_35_"
   style="overflow:visible"
   id="use1069" />
									</clipPath>
									<path
   class="st32"
   d="m 404.8,351 h 8.1 l 4.9,17.9 1.7,6.9 h 0.3 l 1.7,-6.9 4.9,-17.9 h 8.1 v 45.9 H 428 v -18.5 c 0,-4.8 0.7,-14.4 1.1,-18.8 h -0.2 l -2.8,10.7 -4.6,14.5 h -4.2 l -4.5,-14.5 -2.7,-10.7 h -0.2 c 0.4,4.4 1.1,14 1.1,18.8 v 18.5 h -6.4 z"
   clip-path="url(#SVGID_36_)"
   id="path1072" />
								</g>
							</g>
							<g
   id="g1088">
								<g
   id="g1086">
									<defs
   id="defs1079"><rect
     id="SVGID_37_"
     y="0.60000002"
     width="595.29999"
     height="841.90002"
     x="0" /></defs>
									<clipPath
   id="SVGID_38_">
										<use
   xlink:href="#SVGID_37_"
   style="overflow:visible"
   id="use1081" />
									</clipPath>
									<polygon
   class="st33"
   points="201.8,359 188.6,359 188.6,397.1 181.2,397.1 181.1,359 167.9,359 167.9,352.3 201.8,352.3 "
   clip-path="url(#SVGID_38_)"
   id="polygon1084" />
								</g>
							</g>
							<g
   id="g1100">
								<g
   id="g1098">
									<defs
   id="defs1091"><rect
     id="SVGID_39_"
     y="0.60000002"
     width="595.29999"
     height="841.90002"
     x="0" /></defs>
									<clipPath
   id="SVGID_40_">
										<use
   xlink:href="#SVGID_39_"
   style="overflow:visible"
   id="use1093" />
									</clipPath>
									<path
   class="st34"
   d="m 219.3,352.3 h 8.8 l 13.6,44.7 h -7.9 l -6.3,-23.8 c -1.3,-4.7 -2.6,-9.8 -3.7,-14.8 h -0.3 c -1.2,4.9 -2.4,10 -3.7,14.8 l -6.4,23.8 h -7.6 z m -7.9,26.3 24.4,-0.1 2,6.3 -28.1,0.2 z"
   clip-path="url(#SVGID_40_)"
   id="path1096" />
								</g>
							</g>
							<g
   id="g1112">
								<g
   id="g1110">
									<defs
   id="defs1103"><rect
     id="SVGID_41_"
     y="0.60000002"
     width="595.29999"
     height="841.90002"
     x="0" /></defs>
									<clipPath
   id="SVGID_42_">
										<use
   xlink:href="#SVGID_41_"
   style="overflow:visible"
   id="use1105" />
									</clipPath>
									<polygon
   class="st35"
   points="269.6,352.3 277.1,352.3 277.1,397 269.6,397 269.6,377.2 255.3,377.2 255.3,397 247.8,397 247.8,352.3 255.3,352.3 255.3,370.2 269.6,370.2 "
   clip-path="url(#SVGID_42_)"
   id="polygon1108" />
								</g>
							</g>
							<g
   id="g1124">
								<g
   id="g1122">
									<defs
   id="defs1115"><rect
     id="SVGID_43_"
     y="0.60000002"
     width="595.29999"
     height="841.90002"
     x="0" /></defs>
									<clipPath
   id="SVGID_44_">
										<use
   xlink:href="#SVGID_43_"
   style="overflow:visible"
   id="use1117" />
									</clipPath>
									<path
   class="st36"
   d="M 300,317.5 274.5,294.3 262,309.1 c 22.7,26.8 33.1,63.1 37.5,95.9 z"
   clip-path="url(#SVGID_44_)"
   id="path1120" />
								</g>
							</g>
							<g
   id="g1136">
								<g
   id="g1134">
									<defs
   id="defs1127"><rect
     id="SVGID_45_"
     y="0.60000002"
     width="595.29999"
     height="841.90002"
     x="0" /></defs>
									<clipPath
   id="SVGID_46_">
										<use
   xlink:href="#SVGID_45_"
   style="overflow:visible"
   id="use1129" />
									</clipPath>
									<polygon
   class="st37"
   points="211.2,378.6 236,378.5 237.9,384.9 209.3,385 "
   clip-path="url(#SVGID_46_)"
   id="polygon1132" />
								</g>
							</g>
							<g
   id="g1148">
								<g
   id="g1146">
									<defs
   id="defs1139"><rect
     id="SVGID_47_"
     y="0.60000002"
     width="595.29999"
     height="841.90002"
     x="0" /></defs>
									<clipPath
   id="SVGID_48_">
										<use
   xlink:href="#SVGID_47_"
   style="overflow:visible"
   id="use1141" />
									</clipPath>
									<rect
   x="368.89999"
   y="351"
   class="st38"
   width="26.5"
   height="6.9000001"
   clip-path="url(#SVGID_48_)"
   id="rect1144" />
								</g>
							</g>
						</g>
					</g>
				</g>
			</g>
		</g>
	</g>
</g>
<g
   class="st0"
   id="g1172"
   transform="translate(-100129.46,-184544.49)">
	<text
   transform="matrix(0.9113,0,0,1,138.2637,437.7299)"
   class="st39 st22 st40"
   id="text1163">ТАН</text>
	<text
   transform="matrix(0.9113,0,0,1,294.7207,437.5492)"
   class="st39 st22 st40"
   id="text1165">ДЕМ</text>
	<g
   id="Слой_6_1_"
   class="st1">
		<polygon
   class="st2"
   points="177.6,420.1 204.2,420.1 206.3,426.6 175.5,426.7 "
   id="polygon1167" />
	</g>
	<polygon
   class="st41"
   points="369.1,399.6 342.6,399.5 342.6,392.8 369.1,392.8 "
   id="polygon1170" />
</g>
<g
   id="Слой_3_1_"
   transform="translate(-100129.46,-184544.49)">
	<g
   id="g1300">
		<g
   id="g1298">
			<g
   id="g1194">
				<defs
   id="defs1175"><rect
     id="SVGID_49_"
     x="-0.1"
     y="-0.30000001"
     width="595.29999"
     height="841.90002" /></defs>
				<clipPath
   id="SVGID_50_">
					<use
   xlink:href="#SVGID_49_"
   style="overflow:visible"
   id="use1177" />
				</clipPath>
				<g
   class="st42"
   clip-path="url(#SVGID_50_)"
   id="g1192">
					<g
   class="st43"
   id="g1182">
						<path
   class="st21"
   d="m 168.2,358.3 v -6.8 h 32.6 v 6.8 h -12.6 v 38 h -7.3 v -38 z"
   id="path1180" />
					</g>
					<g
   class="st43"
   id="g1186">
						<path
   class="st21"
   d="m 207.6,396.3 h -7.9 l 14.4,-44.8 h 9.1 l 14.4,44.8 h -7.9 l -10.9,-35.6 h -0.3 z m 0.3,-17.6 h 21.5 v 6.5 h -21.5 z"
   id="path1184" />
					</g>
					<g
   class="st43"
   id="g1190">
						<path
   class="st21"
   d="m 243.3,396.3 v -44.8 h 7.4 v 19 h 18.9 v -19 h 7.4 v 44.8 h -7.4 v -19 h -18.9 v 19 z"
   id="path1188" />
					</g>
				</g>
			</g>
			<g
   id="g1214">
				<defs
   id="defs1197"><rect
     id="SVGID_51_"
     x="-0.1"
     y="-0.30000001"
     width="595.29999"
     height="841.90002" /></defs>
				<clipPath
   id="SVGID_52_">
					<use
   xlink:href="#SVGID_51_"
   style="overflow:visible"
   id="use1199" />
				</clipPath>
				<g
   class="st44"
   clip-path="url(#SVGID_52_)"
   id="g1212">
					<g
   class="st43"
   id="g1206">
						<path
   class="st21"
   d="m 323.8,406.9 v -17.4 h 2.7 c 0.9,-0.8 1.8,-1.9 2.6,-3.4 0.8,-1.5 1.5,-3.5 2,-6 0.6,-2.5 0.9,-5.8 1.2,-9.8 l 1.1,-18.9 h 26.1 v 38.2 H 364 V 407 h -7.1 v -10.8 h -26 V 407 h -7.1 z m 11.3,-17.4 h 17.2 V 358.1 H 340 l -0.6,12.1 c -0.2,3 -0.5,5.8 -0.8,8.2 -0.4,2.4 -0.9,4.5 -1.5,6.4 -0.6,1.8 -1.2,3.4 -2,4.7 z"
   id="path1202" />
						<path
   class="st21"
   d="m 370,396.1 v -44.8 h 26.5 v 6.8 h -19.1 v 12.2 h 17.8 v 6.8 h -17.8 v 12.2 h 19.3 v 6.8 z"
   id="path1204" />
					</g>
					<g
   class="st43"
   id="g1210">
						<path
   class="st21"
   d="m 404.6,351.3 h 9 l 12.1,32.4 h 0.5 l 12.1,-32.4 h 9 v 44.8 h -7.1 V 365.3 H 440 L 428.7,396 h -5.3 l -11.3,-30.7 h -0.4 v 30.8 h -7.1 z"
   id="path1208" />
					</g>
				</g>
			</g>
			<g
   id="g1226">
				<defs
   id="defs1217"><rect
     id="SVGID_53_"
     x="-0.1"
     y="-0.30000001"
     width="595.29999"
     height="841.90002" /></defs>
				<clipPath
   id="SVGID_54_">
					<use
   xlink:href="#SVGID_53_"
   style="overflow:visible"
   id="use1219" />
				</clipPath>
				<g
   class="st45"
   clip-path="url(#SVGID_54_)"
   id="g1224">
					<polygon
   class="st2"
   points="205.3,378.7 231.9,378.6 234,385.2 203.2,385.2 "
   id="polygon1222" />
				</g>
			</g>
			<g
   id="g1236">
				<defs
   id="defs1229"><rect
     id="SVGID_55_"
     x="-0.1"
     y="-0.30000001"
     width="595.29999"
     height="841.90002" /></defs>
				<clipPath
   id="SVGID_56_">
					<use
   xlink:href="#SVGID_55_"
   style="overflow:visible"
   id="use1231" />
				</clipPath>
				<polygon
   class="st46"
   points="396.8,358.1 370.3,358.1 370.3,351.3 396.8,351.3 "
   clip-path="url(#SVGID_56_)"
   id="polygon1234" />
			</g>
			<g
   id="g1246">
				<defs
   id="defs1239"><rect
     id="SVGID_57_"
     x="-0.1"
     y="-0.30000001"
     width="595.29999"
     height="841.90002" /></defs>
				<clipPath
   id="SVGID_58_">
					<use
   xlink:href="#SVGID_57_"
   style="overflow:visible"
   id="use1241" />
				</clipPath>
				<polygon
   class="st47"
   points="303.9,219.2 251.5,266.7 302.1,315.8 352.3,269.2 "
   clip-path="url(#SVGID_58_)"
   id="polygon1244" />
			</g>
			<g
   id="g1296">
				<defs
   id="defs1249"><rect
     id="SVGID_59_"
     x="-0.1"
     y="-0.30000001"
     width="595.29999"
     height="841.90002" /></defs>
				<clipPath
   id="SVGID_60_">
					<use
   xlink:href="#SVGID_59_"
   style="overflow:visible"
   id="use1251" />
				</clipPath>
				<g
   class="st48"
   clip-path="url(#SVGID_60_)"
   id="g1294">
					<g
   id="g1262">
						<defs
   id="defs1255"><rect
     id="SVGID_61_"
     x="-0.1"
     y="-0.30000001"
     width="595.29999"
     height="841.90002" /></defs>
						<clipPath
   id="SVGID_62_">
							<use
   xlink:href="#SVGID_61_"
   style="overflow:visible"
   id="use1257" />
						</clipPath>
						<path
   class="st49"
   d="m 320.1,236.8 7.5,6.9 c -15.2,15.7 -39.4,23.7 -71.7,23.8 35.5,11.5 65.3,4.3 86.6,-8.2 l 6.5,7.1 4.3,-31.8 z"
   clip-path="url(#SVGID_62_)"
   id="path1260" />
					</g>
					<g
   id="g1272">
						<defs
   id="defs1265"><rect
     id="SVGID_63_"
     x="-0.1"
     y="-0.30000001"
     width="595.29999"
     height="841.90002" /></defs>
						<clipPath
   id="SVGID_64_">
							<use
   xlink:href="#SVGID_63_"
   style="overflow:visible"
   id="use1267" />
						</clipPath>
						<path
   class="st50"
   d="m 320.1,236.8 7.5,6.9 c -15.2,15.7 -39.4,23.7 -71.7,23.8 35.5,11.5 65.3,4.3 86.6,-8.2 l 6.5,7.1 4.3,-31.8 z"
   clip-path="url(#SVGID_64_)"
   id="path1270" />
					</g>
					<g
   id="g1282">
						<defs
   id="defs1275"><rect
     id="SVGID_65_"
     x="-0.1"
     y="-0.30000001"
     width="595.29999"
     height="841.90002" /></defs>
						<clipPath
   id="SVGID_66_">
							<use
   xlink:href="#SVGID_65_"
   style="overflow:visible"
   id="use1277" />
						</clipPath>
						<path
   class="st51"
   d="m 304.4,316.5 25.9,-22.7 12.2,15 c -23.1,26.4 -34.2,62.5 -39.1,95.3 z"
   clip-path="url(#SVGID_66_)"
   id="path1280" />
					</g>
					<g
   id="g1292">
						<defs
   id="defs1285"><rect
     id="SVGID_67_"
     x="-0.1"
     y="-0.30000001"
     width="595.29999"
     height="841.90002" /></defs>
						<clipPath
   id="SVGID_68_">
							<use
   xlink:href="#SVGID_67_"
   style="overflow:visible"
   id="use1287" />
						</clipPath>
						<path
   class="st52"
   d="m 299.9,316.6 -25.5,-23.2 -12.5,14.8 c 22.7,26.8 33.1,63.1 37.5,95.9 z"
   clip-path="url(#SVGID_68_)"
   id="path1290" />
					</g>
				</g>
			</g>
		</g>
	</g>
</g>
</svg>
