<svg width="58" height="54" viewBox="0 0 58 54" fill="none" xmlns="http://www.w3.org/2000/svg">
<path d="M40.8135 25.1277C41.6246 25.1277 42.3045 24.8601 42.8532 24.325C43.402 23.7899 43.6763 23.1268 43.6763 22.3357C43.6763 21.5447 43.402 20.8816 42.8532 20.3464C42.3045 19.8113 41.6246 19.5437 40.8135 19.5437C40.0023 19.5437 39.3224 19.8113 38.7737 20.3464C38.225 20.8816 37.9506 21.5447 37.9506 22.3357C37.9506 23.1268 38.225 23.7899 38.7737 24.325C39.3224 24.8601 40.0023 25.1277 40.8135 25.1277ZM17.9106 18.1478H32.2249V13.9598H17.9106V18.1478ZM7.89061 53.0473C6.26833 47.7426 4.6699 42.4495 3.09533 37.168C1.52076 31.8866 0.733475 26.4771 0.733475 20.9397C0.733475 16.6587 2.26033 13.0292 5.31404 10.0511C8.36776 7.07297 12.0895 5.58393 16.4792 5.58393H30.7935C32.1772 3.81568 33.8591 2.44297 35.8392 1.46578C37.8194 0.488594 39.9546 0 42.2449 0C43.4377 0 44.4517 0.407161 45.2867 1.22148C46.1217 2.03581 46.5392 3.02463 46.5392 4.18795C46.5392 4.46714 46.5034 4.74634 46.4318 5.02553C46.3602 5.30473 46.2767 5.56066 46.1813 5.79332C45.9905 6.30518 45.8115 6.82868 45.6445 7.3638C45.4775 7.89893 45.3463 8.44569 45.2509 9.00408L51.7639 15.3558H57.9906V34.8298L49.903 37.4123L45.1077 53.0473H29.362V47.4634H23.6363V53.0473H7.89061ZM11.1113 48.8594H19.342V43.2754H33.6563V48.8594H41.887L46.396 34.2016L53.6963 31.7586V19.5437H49.9746L40.8135 10.6095C40.8612 9.44615 41.0162 8.31773 41.2787 7.22421C41.5411 6.13069 41.8155 5.02554 42.1017 3.90875C40.2886 4.37408 38.5709 5.06043 36.9486 5.96782C35.3263 6.87521 34.0858 8.14323 33.2269 9.77187H16.4792C13.33 9.77187 10.6342 10.8654 8.39162 13.0524C6.14904 15.2395 5.02776 17.8686 5.02776 20.9397C5.02776 25.7326 5.71962 30.4208 7.10333 35.0042C8.48704 39.5877 9.82304 44.2061 11.1113 48.8594Z" fill="#FFA500"/>
</svg>
