<svg width="58" height="54" viewBox="0 0 58 54" fill="none" xmlns="http://www.w3.org/2000/svg">
<path d="M23.2188 32.2151V20.8873H35.4456V32.2151H23.2188ZM26.7974 28.8997H31.867V24.2028H26.7974V28.8997ZM22.2049 46.4163V41.9957H16.2406C15.2863 41.9957 14.4513 41.6642 13.7356 41.0011C13.0199 40.338 12.662 39.5644 12.662 38.6803V33.1545H7.89062V29.8391H12.662V22.9871H7.89062V19.6717H12.662V14.1459C12.662 13.2618 13.0199 12.4882 13.7356 11.8251C14.4513 11.162 15.2863 10.8304 16.2406 10.8304H22.2049V6.63086H25.7835V10.8304H33.1792V6.63086H36.7578V10.8304H42.722C43.6763 10.8304 44.5113 11.162 45.227 11.8251C45.9427 12.4882 46.3006 13.2618 46.3006 14.1459V19.6717H50.8335V22.9871H46.3006V29.8391H50.8335V33.1545H46.3006V38.6803C46.3006 39.5644 45.9427 40.338 45.227 41.0011C44.5113 41.6642 43.6763 41.9957 42.722 41.9957H36.7578V46.4163H33.1792V41.9957H25.7835V46.4163H22.2049ZM42.722 38.6803V14.1459H16.2406V38.6803H42.722Z" fill="#FFA500"/>
</svg>
