<svg width="262" height="256" viewBox="0 0 262 256" fill="none" xmlns="http://www.w3.org/2000/svg">
<path d="M140.475 234.667L137.752 205.333H126.862C100.908 205.333 78.7645 196.355 60.433 178.4C42.1014 160.444 32.9356 138.755 32.9356 113.333C32.9356 87.911 42.1468 66.2221 60.5691 48.2666C78.9914 30.311 101.271 21.3333 127.407 21.3333C140.293 21.3333 152.227 23.5999 163.208 28.1333C174.188 32.6666 183.763 39.0221 191.93 47.1999C200.098 55.3777 206.496 65.0221 211.124 76.1333C215.752 87.2444 218.066 99.3777 218.066 112.533C218.066 124.267 216.297 136 212.757 147.733C209.218 159.467 204.091 170.667 197.375 181.333C190.66 192 182.492 201.867 172.873 210.933C163.253 220 152.454 227.911 140.475 234.667ZM154.087 205.867C168.97 193.6 180.632 179.155 189.072 162.533C197.511 145.911 201.731 129.244 201.731 112.533C201.731 90.4888 194.698 72.4444 180.632 58.3999C166.565 44.3555 148.824 37.3333 127.407 37.3333C105.627 37.3333 87.1589 44.7555 72.0036 59.5999C56.8483 74.4444 49.2707 92.3555 49.2707 113.333C49.2707 134.311 56.8483 152.222 72.0036 167.067C87.1589 181.911 105.445 189.333 126.862 189.333H154.087V205.867ZM127.407 175.2C130.311 175.2 132.761 174.222 134.757 172.267C136.754 170.311 137.752 167.911 137.752 165.067C137.752 162.222 136.754 159.822 134.757 157.867C132.761 155.911 130.311 154.933 127.407 154.933C124.503 154.933 122.052 155.911 120.056 157.867C118.059 159.822 117.061 162.222 117.061 165.067C117.061 167.911 118.059 170.311 120.056 172.267C122.052 174.222 124.503 175.2 127.407 175.2ZM120.056 138.933H133.668C133.668 134.489 134.44 130.8 135.983 127.867C137.525 124.933 140.747 121.067 145.647 116.267C150.548 111.467 153.997 107.067 155.993 103.067C157.99 99.0666 158.988 94.7555 158.988 90.1333C158.988 82.1333 156.22 75.5555 150.684 70.3999C145.148 65.2444 137.752 62.6666 128.496 62.6666C120.873 62.6666 114.066 64.6221 108.077 68.5333C102.087 72.4444 97.6406 77.7777 94.7366 84.5333L107.26 89.5999C109.257 84.9777 112.024 81.5555 115.564 79.3333C119.103 77.111 123.141 75.9999 127.679 75.9999C133.124 75.9999 137.389 77.2888 140.475 79.8666C143.56 82.4444 145.103 85.8666 145.103 90.1333C145.103 93.511 144.105 96.9333 142.108 100.4C140.112 103.867 136.572 108.178 131.49 113.333C126.59 118.311 123.459 122.311 122.098 125.333C120.737 128.355 120.056 132.889 120.056 138.933Z" fill="#FFA500" fill-opacity="0.5"/>
</svg>
