<svg width="28" height="28" viewBox="0 0 28 28" fill="none" xmlns="http://www.w3.org/2000/svg">
<path d="M8.45831 24.5V20.7083H5.83331V18.9583H8.45831V15.75H5.83331V14H8.45831V3.5H16.0416C17.7528 3.5 19.2014 4.09306 20.3875 5.27917C21.5736 6.46528 22.1666 7.91389 22.1666 9.625C22.1666 11.3361 21.5736 12.7847 20.3875 13.9708C19.2014 15.1569 17.7528 15.75 16.0416 15.75H10.2083V18.9583H15.1666V20.7083H10.2083V24.5H8.45831ZM10.2083 14H16.0416C17.2666 14 18.3021 13.5771 19.1479 12.7313C19.9937 11.8854 20.4166 10.85 20.4166 9.625C20.4166 8.4 19.9937 7.36458 19.1479 6.51875C18.3021 5.67292 17.2666 5.25 16.0416 5.25H10.2083V14Z" fill="#FFA500"/>
</svg>
