<svg width="160" height="160" viewBox="0 0 160 160" fill="none" xmlns="http://www.w3.org/2000/svg">
<g clip-path="url(#clip0_34_279)">
<path fill-rule="evenodd" clip-rule="evenodd" d="M156 80C156 121.974 121.974 156 80 156C38.0264 156 4 121.974 4 80C4 38.0264 38.0264 4 80 4C121.974 4 156 38.0264 156 80ZM160 80C160 124.183 124.183 160 80 160C35.8172 160 0 124.183 0 80C0 35.8172 35.8172 0 80 0C124.183 0 160 35.8172 160 80ZM76.7336 102.517L115.69 65.184L108.31 57.4827L72.5703 91.7332L52.4661 77.1415L46.2005 85.774L69.9107 102.983L73.5167 105.6L76.7336 102.517Z" fill="#32CD32"/>
</g>
<defs>
<clipPath id="clip0_34_279">
<rect width="160" height="160" fill="white"/>
</clipPath>
</defs>
</svg>
