<svg width="59" height="49" viewBox="0 0 59 49" fill="none" xmlns="http://www.w3.org/2000/svg">
<path d="M47.0327 23.7607C46.8339 19.7085 45.0645 16.2758 41.7245 13.4627C38.3845 10.6496 34.3089 9.15928 29.4977 8.99184V5.97778C32.3605 6.04476 35.0544 6.55548 37.5793 7.50993C40.1042 8.46438 42.3209 9.74535 44.2295 11.3528C46.138 12.9603 47.6589 14.8274 48.7921 16.954C49.9254 19.0805 50.5317 21.3495 50.6112 23.7607H47.0327ZM36.953 23.7607C36.7542 22.0862 35.959 20.6713 34.5673 19.5159C33.1757 18.3605 31.4858 17.6991 29.4977 17.5317V14.5176C32.4798 14.685 35.0146 15.6395 37.1021 17.3809C39.1896 19.1224 40.3328 21.249 40.5316 23.7607H36.953ZM48.1659 42.1966C43.3149 42.1966 38.4938 41.192 33.7025 39.1826C28.9112 37.1732 24.607 34.561 20.7898 31.3461C16.9727 28.1311 13.8713 24.5058 11.4855 20.4704C9.09983 16.4349 7.90697 12.3743 7.90697 8.28856C7.90697 7.65226 8.16543 7.11643 8.68233 6.68106C9.19924 6.2457 9.83543 6.02802 10.5909 6.02802H18.9409C19.4976 6.02802 19.9847 6.18709 20.4022 6.50524C20.8196 6.82339 21.088 7.25038 21.2073 7.78621L22.8177 14.1157C22.8972 14.5846 22.8873 15.0116 22.7879 15.3967C22.6885 15.7818 22.4797 16.1083 22.1616 16.3763L16.1973 21.4499C18.424 24.5644 20.9191 27.2771 23.6825 29.5879C26.446 31.8986 29.5772 33.8578 33.0763 35.4653L38.7423 30.5423C39.1399 30.1739 39.5972 29.9144 40.1141 29.7637C40.631 29.613 41.1479 29.5879 41.6648 29.6883L48.7623 30.9944C49.3587 31.0949 49.8558 31.3461 50.2534 31.7479C50.651 32.1498 50.8498 32.6187 50.8498 33.1545V39.9361C50.8498 40.5724 50.5914 41.1082 50.0745 41.5436C49.5576 41.979 48.9214 42.1966 48.1659 42.1966ZM14.408 18.687L19.2391 14.5678L17.8673 9.04207H11.4855C11.4855 10.3482 11.7241 11.7798 12.2013 13.3371C12.6784 14.8944 13.414 16.6777 14.408 18.687ZM36.4163 36.9221C38.0465 37.5584 39.8159 38.0774 41.7245 38.4793C43.633 38.8812 45.482 39.1156 47.2712 39.1826V33.8075L41.128 32.7526L36.4163 36.9221Z" fill="#FFA500"/>
</svg>
