<svg width="29" height="28" viewBox="0 0 29 28" fill="none" xmlns="http://www.w3.org/2000/svg">
<path d="M4.44189 22.75V8.37084V22.75ZM4.44189 24.5C3.97632 24.5 3.56894 24.325 3.21976 23.975C2.87057 23.625 2.69598 23.2167 2.69598 22.75V8.37084C2.69598 7.90418 2.87057 7.49584 3.21976 7.14584C3.56894 6.79584 3.97632 6.62084 4.44189 6.62084H9.9706V4.08334C9.9706 3.63612 10.1452 3.23265 10.4944 2.87293C10.8436 2.5132 11.2509 2.33334 11.7165 2.33334H16.9542C17.4198 2.33334 17.8272 2.5132 18.1764 2.87293C18.5256 3.23265 18.7001 3.63612 18.7001 4.08334V6.62084H24.2289C24.6944 6.62084 25.1018 6.79584 25.451 7.14584C25.8002 7.49584 25.9748 7.90418 25.9748 8.37084V15.3125C25.7032 15.0986 25.4267 14.9042 25.1455 14.7292C24.8642 14.5542 24.5586 14.3889 24.2289 14.2333V8.37084H4.44189V22.7646V22.75H14.1608C14.2384 23.0611 14.3354 23.3625 14.4518 23.6542C14.5682 23.9458 14.704 24.2278 14.8591 24.5H4.44189ZM11.7165 6.62084H16.9542V4.08334H11.7165V6.62084ZM21.319 26.6292C19.7865 26.6292 18.4674 26.075 17.3616 24.9667C16.2559 23.8583 15.703 22.5361 15.703 21C15.703 19.4639 16.2559 18.1417 17.3616 17.0333C18.4674 15.925 19.7865 15.3708 21.319 15.3708C22.8515 15.3708 24.1707 15.925 25.2764 17.0333C26.3821 18.1417 26.935 19.4639 26.935 21C26.935 22.5361 26.3821 23.8583 25.2764 24.9667C24.1707 26.075 22.8515 26.6292 21.319 26.6292ZM23.4723 23.9458L24.258 23.1583L21.8137 20.9417V17.325H20.5915V21.2917L23.4723 23.9458Z" fill="#FFA500"/>
</svg>
